<svg width="168" height="132" viewBox="0 0 168 132" fill="none" xmlns="http://www.w3.org/2000/svg">
<path d="M17.1626 110.075C16.9567 109.428 16.6797 108.849 16.3317 108.338C15.9908 107.82 15.5824 107.379 15.1065 107.017C14.6307 106.648 14.0874 106.367 13.4766 106.175C12.8729 105.984 12.2088 105.888 11.4844 105.888C10.2557 105.888 9.14773 106.204 8.16051 106.836C7.1733 107.468 6.39205 108.395 5.81676 109.616C5.24858 110.831 4.96449 112.319 4.96449 114.08C4.96449 115.849 5.25213 117.344 5.82742 118.565C6.4027 119.787 7.19105 120.714 8.19247 121.346C9.19389 121.978 10.3338 122.294 11.6122 122.294C12.7983 122.294 13.8317 122.053 14.7124 121.57C15.6001 121.087 16.2855 120.405 16.7685 119.524C17.2585 118.636 17.5036 117.592 17.5036 116.392L18.3558 116.552H12.1129V113.835H20.6889V116.317C20.6889 118.15 20.2983 119.741 19.517 121.09C18.7429 122.433 17.6705 123.469 16.2997 124.201C14.9361 124.933 13.3736 125.298 11.6122 125.298C9.63778 125.298 7.90483 124.844 6.41335 123.935C4.92898 123.026 3.77131 121.737 2.94034 120.067C2.10938 118.391 1.69389 116.403 1.69389 114.102C1.69389 112.362 1.93537 110.799 2.41832 109.414C2.90128 108.029 3.57955 106.854 4.45312 105.888C5.33381 104.915 6.36719 104.173 7.55327 103.661C8.74645 103.143 10.0497 102.884 11.4631 102.884C12.642 102.884 13.7393 103.058 14.755 103.406C15.7777 103.754 16.6868 104.247 17.4822 104.886C18.2848 105.526 18.9489 106.286 19.4744 107.166C20 108.04 20.3551 109.009 20.5398 110.075H17.1626ZM31.6646 125.33C30.0524 125.33 28.6639 124.986 27.4991 124.297C26.3414 123.601 25.4466 122.624 24.8145 121.367C24.1895 120.103 23.877 118.622 23.877 116.925C23.877 115.249 24.1895 113.771 24.8145 112.493C25.4466 111.214 26.3272 110.217 27.4565 109.499C28.5929 108.782 29.921 108.423 31.4409 108.423C32.3642 108.423 33.2591 108.576 34.1255 108.881C34.992 109.187 35.7697 109.666 36.4586 110.32C37.1476 110.973 37.6909 111.822 38.0886 112.866C38.4863 113.903 38.6852 115.163 38.6852 116.648V117.777H25.6774V115.391H35.5637C35.5637 114.553 35.3933 113.81 35.0524 113.164C34.7115 112.511 34.2321 111.996 33.6142 111.619C33.0034 111.243 32.286 111.055 31.4622 111.055C30.5673 111.055 29.786 111.275 29.1184 111.715C28.4579 112.148 27.9466 112.717 27.5843 113.42C27.2292 114.116 27.0517 114.872 27.0517 115.689V117.553C27.0517 118.647 27.2434 119.577 27.627 120.344C28.0176 121.112 28.5609 121.697 29.2569 122.102C29.9529 122.5 30.7662 122.699 31.6966 122.699C32.3002 122.699 32.8507 122.614 33.3478 122.443C33.845 122.266 34.2747 122.003 34.6369 121.655C34.9991 121.307 35.2761 120.877 35.4679 120.366L38.4828 120.909C38.2413 121.797 37.8081 122.575 37.1831 123.242C36.5652 123.903 35.7875 124.418 34.85 124.787C33.9196 125.149 32.8578 125.33 31.6646 125.33ZM49.858 108.636V111.193H40.9197V108.636H49.858ZM43.3168 104.716H46.5021V120.195C46.5021 120.813 46.5945 121.278 46.7791 121.591C46.9638 121.896 47.2017 122.106 47.4929 122.219C47.7912 122.326 48.1143 122.379 48.4624 122.379C48.718 122.379 48.9418 122.362 49.1335 122.326C49.3253 122.29 49.4744 122.262 49.581 122.241L50.1562 124.872C49.9716 124.943 49.7088 125.014 49.3679 125.085C49.027 125.163 48.6009 125.206 48.0895 125.213C47.2514 125.227 46.4702 125.078 45.7457 124.766C45.0213 124.453 44.4354 123.97 43.9879 123.317C43.5405 122.663 43.3168 121.843 43.3168 120.856V104.716ZM73.4766 108.913C73.3629 107.905 72.8942 107.124 72.0703 106.57C71.2464 106.009 70.2095 105.728 68.9595 105.728C68.0646 105.728 67.2905 105.87 66.6371 106.154C65.9837 106.431 65.4759 106.815 65.1136 107.305C64.7585 107.788 64.581 108.338 64.581 108.956C64.581 109.474 64.7017 109.922 64.9432 110.298C65.1918 110.675 65.5149 110.991 65.9126 111.246C66.3175 111.495 66.7507 111.705 67.2124 111.875C67.674 112.038 68.1179 112.173 68.544 112.28L70.6747 112.834C71.3707 113.004 72.0845 113.235 72.8161 113.526C73.5476 113.817 74.2259 114.201 74.8509 114.677C75.4759 115.153 75.9801 115.742 76.3636 116.445C76.7543 117.148 76.9496 117.99 76.9496 118.97C76.9496 120.206 76.63 121.303 75.9908 122.262C75.3587 123.221 74.4389 123.977 73.2315 124.531C72.0313 125.085 70.5788 125.362 68.8743 125.362C67.2408 125.362 65.8274 125.103 64.6342 124.585C63.4411 124.066 62.5071 123.331 61.8324 122.379C61.1577 121.42 60.7848 120.284 60.7138 118.97H64.0163C64.0803 119.759 64.3359 120.415 64.7834 120.941C65.2379 121.46 65.8168 121.847 66.5199 122.102C67.2301 122.351 68.0078 122.475 68.853 122.475C69.7834 122.475 70.6108 122.33 71.3352 122.038C72.0668 121.74 72.642 121.328 73.0611 120.803C73.4801 120.27 73.6896 119.648 73.6896 118.938C73.6896 118.292 73.505 117.763 73.1357 117.351C72.7734 116.939 72.2798 116.598 71.6548 116.328C71.0369 116.058 70.3374 115.82 69.5561 115.614L66.978 114.911C65.2308 114.435 63.8459 113.736 62.8232 112.812C61.8075 111.889 61.2997 110.668 61.2997 109.148C61.2997 107.891 61.6406 106.793 62.3224 105.856C63.0043 104.918 63.9276 104.19 65.0923 103.672C66.2571 103.146 67.571 102.884 69.0341 102.884C70.5114 102.884 71.8146 103.143 72.9439 103.661C74.0803 104.18 74.9751 104.893 75.6286 105.803C76.282 106.705 76.6229 107.741 76.6513 108.913H73.4766ZM88.2662 108.636V111.193H79.3279V108.636H88.2662ZM81.725 104.716H84.9103V120.195C84.9103 120.813 85.0027 121.278 85.1873 121.591C85.372 121.896 85.6099 122.106 85.9011 122.219C86.1994 122.326 86.5225 122.379 86.8706 122.379C87.1262 122.379 87.35 122.362 87.5417 122.326C87.7335 122.29 87.8826 122.262 87.9892 122.241L88.5645 124.872C88.3798 124.943 88.117 125.014 87.7761 125.085C87.4352 125.163 87.0091 125.206 86.4977 125.213C85.6596 125.227 84.8784 125.078 84.1539 124.766C83.4295 124.453 82.8436 123.97 82.3961 123.317C81.9487 122.663 81.725 121.843 81.725 120.856V104.716ZM96.5518 125.362C95.5149 125.362 94.5774 125.17 93.7393 124.787C92.9013 124.396 92.2372 123.832 91.7472 123.093C91.2642 122.354 91.0227 121.449 91.0227 120.376C91.0227 119.453 91.2003 118.693 91.5554 118.097C91.9105 117.5 92.3899 117.028 92.9936 116.68C93.5973 116.332 94.272 116.069 95.0178 115.891C95.7635 115.714 96.5234 115.579 97.2976 115.487C98.2777 115.373 99.0732 115.281 99.6839 115.21C100.295 115.131 100.739 115.007 101.016 114.837C101.293 114.666 101.431 114.389 101.431 114.006V113.931C101.431 113.001 101.168 112.28 100.643 111.768C100.124 111.257 99.3501 111.001 98.3203 111.001C97.2479 111.001 96.4027 111.239 95.7848 111.715C95.174 112.184 94.7514 112.706 94.517 113.281L91.5234 112.599C91.8786 111.605 92.397 110.803 93.0788 110.192C93.7678 109.574 94.5597 109.126 95.4545 108.849C96.3494 108.565 97.2905 108.423 98.2777 108.423C98.9311 108.423 99.6236 108.501 100.355 108.658C101.094 108.807 101.783 109.084 102.422 109.489C103.068 109.893 103.597 110.472 104.009 111.225C104.421 111.971 104.627 112.94 104.627 114.134V125H101.516V122.763H101.388C101.183 123.175 100.874 123.58 100.462 123.977C100.05 124.375 99.5206 124.705 98.8743 124.968C98.228 125.231 97.4538 125.362 96.5518 125.362ZM97.2443 122.805C98.125 122.805 98.8778 122.631 99.5028 122.283C100.135 121.935 100.614 121.481 100.941 120.92C101.275 120.352 101.442 119.744 101.442 119.098V116.989C101.328 117.102 101.108 117.209 100.781 117.308C100.462 117.401 100.096 117.482 99.6839 117.553C99.272 117.617 98.8707 117.678 98.4801 117.734C98.0895 117.784 97.7628 117.827 97.5 117.862C96.8821 117.94 96.3175 118.072 95.8061 118.256C95.3018 118.441 94.897 118.707 94.5916 119.055C94.2933 119.396 94.1442 119.851 94.1442 120.419C94.1442 121.207 94.4354 121.804 95.0178 122.209C95.6001 122.607 96.3423 122.805 97.2443 122.805ZM108.87 125V108.636H111.949V111.236H112.119C112.417 110.355 112.943 109.663 113.696 109.158C114.456 108.647 115.315 108.391 116.274 108.391C116.473 108.391 116.707 108.398 116.977 108.413C117.254 108.427 117.471 108.445 117.627 108.466V111.513C117.499 111.477 117.272 111.438 116.945 111.396C116.618 111.346 116.292 111.321 115.965 111.321C115.212 111.321 114.541 111.481 113.952 111.8C113.369 112.113 112.907 112.55 112.567 113.111C112.226 113.665 112.055 114.297 112.055 115.007V125H108.87ZM128.989 108.636V111.193H120.051V108.636H128.989ZM122.448 104.716H125.633V120.195C125.633 120.813 125.725 121.278 125.91 121.591C126.095 121.896 126.333 122.106 126.624 122.219C126.922 122.326 127.245 122.379 127.593 122.379C127.849 122.379 128.073 122.362 128.264 122.326C128.456 122.29 128.605 122.262 128.712 122.241L129.287 124.872C129.102 124.943 128.84 125.014 128.499 125.085C128.158 125.163 127.732 125.206 127.22 125.213C126.382 125.227 125.601 125.078 124.877 124.766C124.152 124.453 123.566 123.97 123.119 123.317C122.671 122.663 122.448 121.843 122.448 120.856V104.716ZM139.389 125.33C137.777 125.33 136.388 124.986 135.224 124.297C134.066 123.601 133.171 122.624 132.539 121.367C131.914 120.103 131.602 118.622 131.602 116.925C131.602 115.249 131.914 113.771 132.539 112.493C133.171 111.214 134.052 110.217 135.181 109.499C136.317 108.782 137.646 108.423 139.165 108.423C140.089 108.423 140.984 108.576 141.85 108.881C142.717 109.187 143.494 109.666 144.183 110.32C144.872 110.973 145.415 111.822 145.813 112.866C146.211 113.903 146.41 115.163 146.41 116.648V117.777H133.402V115.391H143.288C143.288 114.553 143.118 113.81 142.777 113.164C142.436 112.511 141.957 111.996 141.339 111.619C140.728 111.243 140.011 111.055 139.187 111.055C138.292 111.055 137.511 111.275 136.843 111.715C136.183 112.148 135.671 112.717 135.309 113.42C134.954 114.116 134.776 114.872 134.776 115.689V117.553C134.776 118.647 134.968 119.577 135.352 120.344C135.742 121.112 136.286 121.697 136.982 122.102C137.678 122.5 138.491 122.699 139.421 122.699C140.025 122.699 140.575 122.614 141.072 122.443C141.57 122.266 141.999 122.003 142.362 121.655C142.724 121.307 143.001 120.877 143.192 120.366L146.207 120.909C145.966 121.797 145.533 122.575 144.908 123.242C144.29 123.903 143.512 124.418 142.575 124.787C141.644 125.149 140.582 125.33 139.389 125.33ZM156.07 125.32C154.749 125.32 153.57 124.982 152.533 124.308C151.503 123.626 150.693 122.656 150.104 121.399C149.521 120.135 149.23 118.619 149.23 116.85C149.23 115.082 149.525 113.569 150.115 112.312C150.711 111.055 151.528 110.092 152.565 109.425C153.602 108.757 154.777 108.423 156.091 108.423C157.107 108.423 157.923 108.594 158.541 108.935C159.166 109.268 159.649 109.659 159.99 110.107C160.338 110.554 160.608 110.948 160.8 111.289H160.992V103.182H164.177V125H161.066V122.454H160.8C160.608 122.802 160.331 123.2 159.969 123.647C159.614 124.094 159.124 124.485 158.499 124.819C157.874 125.153 157.064 125.32 156.07 125.32ZM156.773 122.603C157.689 122.603 158.463 122.362 159.095 121.879C159.735 121.388 160.218 120.71 160.544 119.844C160.878 118.977 161.045 117.969 161.045 116.818C161.045 115.682 160.882 114.687 160.555 113.835C160.228 112.983 159.749 112.319 159.117 111.843C158.485 111.367 157.703 111.129 156.773 111.129C155.814 111.129 155.015 111.378 154.376 111.875C153.737 112.372 153.254 113.05 152.927 113.91C152.607 114.769 152.448 115.739 152.448 116.818C152.448 117.912 152.611 118.896 152.938 119.769C153.264 120.643 153.747 121.335 154.387 121.847C155.033 122.351 155.828 122.603 156.773 122.603Z" fill="white"/>
<path d="M119.059 20.8486V20.4268H119.023C118.812 15.2245 115.297 10.0574 108.425 6.103C94.3302 -2.03433 71.4824 -2.03433 57.4749 6.103C50.4624 10.1805 46.9825 15.5233 47.0001 20.8662V31.8859V32.0792V42.9055V43.0989V53.9252V54.1185V65.1382C47.0352 70.4811 50.5854 75.8239 57.6331 79.8838C64.6983 83.9613 73.9253 86 83.1347 86C92.3617 86 101.554 83.9613 108.584 79.8838C115.596 75.8064 119.076 70.4635 119.059 65.1382V54.1185V53.5034V43.0989V42.4486V32.044V31.4289V20.8486C119.059 20.8662 119.059 20.8486 119.059 20.8486ZM64.8038 14.2403L66.7546 13.1155C67.2467 12.8343 68.02 12.8343 68.5297 13.1155L70.9375 14.504C71.4648 14.1876 72.0096 13.8888 72.5369 13.5725L70.1291 12.184C69.637 11.9028 69.637 11.4459 70.1291 11.1647L72.0799 10.0399C72.572 9.75865 73.3629 9.75865 73.855 10.0399L76.9307 11.8149L77.3349 11.6919C80.7797 10.6374 84.4353 10.1629 88.337 10.4441C91.3951 10.6726 94.1368 11.3931 96.6501 12.4477C97.6343 12.8519 98.5482 13.3088 99.3743 13.7834C101.554 15.0488 103.223 16.5251 104.524 18.1948L104.787 18.6517C105.086 19.2668 104.735 19.6887 103.698 19.9347C102.608 20.2159 101.501 20.462 100.394 20.708C99.6203 20.8662 99.0755 20.831 98.6009 20.5498C98.4779 20.4795 98.3725 20.3917 98.2494 20.3038C97.5113 19.6184 96.8434 18.8802 96.0525 18.2123C95.3495 17.5972 94.5762 17.0172 93.6975 16.5075C92.5375 15.8397 91.2018 15.2773 89.6024 14.8906C87.2122 14.2931 84.8747 14.4337 82.5196 14.9785L82.4317 14.9961L88.3897 18.4408C88.8818 18.722 88.8818 19.179 88.3897 19.4602L86.4389 20.585C85.9468 20.8662 85.1559 20.8662 84.6638 20.585L77.827 16.6481C77.3173 16.9469 76.7725 17.2633 76.2277 17.5796L83.0644 21.5165C83.5565 21.7977 83.5565 22.2546 83.0644 22.5358L81.1136 23.6607C80.6215 23.9419 79.8482 23.9419 79.3385 23.6607L73.0993 20.0577C71.7108 21.745 71.2715 23.4146 72.8357 25.1546C73.5035 25.8927 74.3647 26.543 75.3665 27.123C76.2453 27.6327 77.2119 28.072 78.2488 28.4763C79.4088 28.8981 80.6391 29.2847 81.8342 29.7241C82.0275 29.7944 82.1857 29.8647 82.3263 29.9526C82.8008 30.2338 82.8711 30.5501 82.5899 30.9895C82.1857 31.6574 81.7287 32.3077 81.2366 32.9404C80.8324 33.5204 80.0767 33.7313 78.987 33.5204C77.8973 33.2743 76.8252 32.9755 75.7707 32.6416C73.8374 32.0089 72.0975 31.2707 70.586 30.392C69.0043 29.4781 67.6685 28.4235 66.5964 27.2284C64.0832 24.3812 64.1359 21.4813 66.1922 18.5638C66.5964 17.9839 67.1589 17.4742 67.651 16.9293L64.7335 15.2421C64.3117 14.9785 64.3117 14.5215 64.8038 14.2403ZM57.6331 35.6118C71.746 43.7667 94.5586 43.7667 108.584 35.6118C110.763 34.3464 112.573 32.9404 114.067 31.4641V32.0792C114.085 35.7348 111.167 39.5487 106.07 42.5013C100.025 46.0163 91.8872 47.9496 83.1347 47.9496C74.3823 47.9496 66.1922 46.0163 60.1112 42.5013C54.9616 39.5311 51.9914 35.6997 51.9563 32.0616V31.341C53.5205 32.8525 55.3835 34.3112 57.6331 35.6118ZM106.088 64.5231C100.042 68.0381 91.9048 69.9714 83.1523 69.9714C74.3999 69.9714 66.2098 68.0381 60.1288 64.5231C54.9792 61.5529 52.009 57.7215 51.9739 54.0834V53.5561C53.5205 55.0852 55.3659 56.5263 57.6331 57.8269C64.6983 61.9044 73.9253 63.9431 83.1347 63.9431C92.3617 63.9431 101.554 61.9044 108.584 57.8269C110.763 56.5615 112.573 55.1555 114.067 53.6791V54.1185C114.102 57.7742 111.185 61.5704 106.088 64.5231ZM106.088 53.521C100.042 57.036 91.9048 58.9693 83.1523 58.9693C74.3999 58.9693 66.2098 57.036 60.1288 53.521C54.9792 50.5508 52.009 46.7194 51.9739 43.0813V42.554C53.5205 44.0831 55.3659 45.5242 57.6331 46.8248C64.6983 50.9023 73.9253 52.941 83.1347 52.941C92.3617 52.941 101.554 50.9023 108.584 46.8248C110.763 45.5594 112.573 44.1534 114.067 42.6771V43.1164C114.102 46.7545 111.185 50.5508 106.088 53.521ZM106.088 75.5427C100.042 79.0578 91.9048 80.9911 83.1523 80.9911C74.3999 80.9911 66.2098 79.0578 60.1288 75.5427C54.9792 72.5725 52.009 68.7411 51.9739 65.1031V64.5758C53.5205 66.1048 55.3659 67.546 57.6331 68.8466C64.6983 72.924 73.9253 74.9628 83.1347 74.9628C92.3617 74.9628 101.554 72.924 108.584 68.8466C110.763 67.5812 112.573 66.1751 114.067 64.6988V65.1382C114.102 68.7763 111.185 72.5901 106.088 75.5427Z" fill="#54BD95"/>
</svg>
